<?xml version="1.0" ?><svg id="Icons" viewBox="0 0 24 24" xmlns="http://www.w3.org/2000/svg"><path class="cls-1" d="M20,2H4A4,4,0,0,0,0,6V18a4,4,0,0,0,4,4H20a4,4,0,0,0,4-4V6A4,4,0,0,0,20,2Zm2,16a2,2,0,0,1-2,2H4a2,2,0,0,1-2-2V6A2,2,0,0,1,4,4H20a2,2,0,0,1,2,2Z"/><path class="cls-1" d="M19.74,7.017a1,1,0,0,0-1.413-.067L13.35,11.479a2.005,2.005,0,0,1-2.7,0L5.673,6.95A1,1,0,1,0,4.327,8.43l3.957,3.6L4.328,15.62A1,1,0,1,0,5.672,17.1l4.143-3.76a3.937,3.937,0,0,0,4.37,0l4.143,3.76a1,1,0,1,0,1.344-1.48l-3.955-3.591,3.956-3.6A1,1,0,0,0,19.74,7.017Z"/></svg>