<?xml version="1.0" encoding="UTF-8" standalone="no"?><!-- Generator: Gravit.io --><svg xmlns="http://www.w3.org/2000/svg" xmlns:xlink="http://www.w3.org/1999/xlink" style="isolation:isolate" viewBox="0 0 600 600" width="600pt" height="600pt"><defs><clipPath id="_clipPath_Heiv096iyjoWDL0KeZd6l26WQaJG2ZFs"><rect width="600" height="600"/></clipPath></defs><g clip-path="url(#_clipPath_Heiv096iyjoWDL0KeZd6l26WQaJG2ZFs)"><path d=" M 61.082 369.798 C 59.201 380.059 58.219 390.632 58.219 401.433 C 58.219 497.812 136.467 576.06 232.846 576.06 C 329.226 576.06 407.474 497.812 407.474 401.433 C 407.474 397.75 407.36 394.094 407.135 390.468 L 407.135 390.468 L 407.135 154.822 L 541.781 23.94 L 410.188 24.902 L 274.166 153.847 L 274.166 231.731 L 274.166 231.731 L 274.166 401.433 L 274.166 401.433 C 274.166 401.495 274.166 401.558 274.166 401.62 C 274.166 424.529 255.568 443.127 232.659 443.127 C 209.75 443.127 191.152 424.529 191.152 401.62 L 191.152 401.62 C 191.152 401.558 191.152 401.495 191.152 401.433 L 191.152 401.433 L 191.152 239.729 L 61.082 369.798 Z " fill-rule="evenodd" fill="rgb(0,0,0)"/></g></svg>